<svg xmlns="http://www.w3.org/2000/svg" xmlns:xlink="http://www.w3.org/1999/xlink" viewBox="0 0 393 852" width="393" height="852" role="img" aria-label="Home sections"><title>Home sections</title><rect x="0" y="0" width="393" height="852" rx="0" fill="#FAFAF7"/><text x="27" y="31" font-family="Arial, Helvetica, sans-serif" font-size="14" font-weight="600" fill="#202D26" text-anchor="start" >9:41</text><rect x="290" y="25.5" width="3" height="2.5" rx="1" fill="#202D26"/><rect x="295" y="23.0" width="3" height="5.0" rx="1" fill="#202D26"/><rect x="300" y="20.5" width="3" height="7.5" rx="1" fill="#202D26"/><rect x="305" y="18.0" width="3" height="10.0" rx="1" fill="#202D26"/><path d="M318 22q8-7 16 0m-13 3q5-4 10 0m-7 3q2-2 4 0" fill="none" stroke="#202D26" stroke-width="1.7" stroke-linecap="round"/><rect x="342" y="18" width="23" height="12" rx="3" fill="none" stroke="#202D26" stroke-width="1"/><rect x="345" y="21" width="16" height="6" rx="1" fill="#202D26"/><rect x="367" y="22" width="2" height="4" rx="1" fill="#202D26"/><a href="#settings" data-target="settings" aria-label="settings"><svg x="20" y="61" width="24" height="24" viewBox="0 0 24 24" fill="none" stroke="#202D26" stroke-width="1.7" stroke-linecap="round" stroke-linejoin="round"><path d="m15 5-7 7 7 7"/></svg></a><text x="50" y="79" font-family="Arial, Helvetica, sans-serif" font-size="15" font-weight="500" fill="#202D26" text-anchor="start" >Settings</text><a href="#browse" data-target="browse" aria-label="browse"><rect x="325" y="50" width="44" height="44" rx="22" fill="transparent"/><svg x="336" y="61" width="22" height="22" viewBox="0 0 24 24" fill="none" stroke="#202D26" stroke-width="1.7" stroke-linecap="round" stroke-linejoin="round"><path d="M12 5v14 M5 12h14"/></svg></a><text x="24" y="131" font-family="Arial, Helvetica, sans-serif" font-size="28" font-weight="700" fill="#202D26" text-anchor="start" >Home sections</text><text x="24" y="160" font-family="Arial, Helvetica, sans-serif" font-size="13" font-weight="400" fill="#606D63" text-anchor="start" >Your Home, in your order.</text><rect x="24" y="203" width="345" height="88" rx="16" fill="#FFFFFF" stroke="#E7EAE4" stroke-width="1"/><svg x="41" y="231" width="24" height="24" viewBox="0 0 24 24" fill="none" stroke="#376A50" stroke-width="1.7" stroke-linecap="round" stroke-linejoin="round"><path d="M3 10a9 9 0 1 1 1 7 M3 4v6h6 M12 7v5l3 2"/></svg><text x="86" y="236" font-family="Arial, Helvetica, sans-serif" font-size="16" font-weight="600" fill="#202D26" text-anchor="start" >Continue Reading</text><text x="86" y="260" font-family="Arial, Helvetica, sans-serif" font-size="11" font-weight="400" fill="#606D63" text-anchor="start" >Your library</text><svg x="329" y="231" width="22" height="22" viewBox="0 0 24 24" fill="none" stroke="#606D63" stroke-width="1.7" stroke-linecap="round" stroke-linejoin="round"><path d="M7 7h.01 M17 7h.01 M7 12h.01 M17 12h.01 M7 17h.01 M17 17h.01"/></svg><rect x="24" y="310" width="345" height="88" rx="16" fill="#FFFFFF" stroke="#E7EAE4" stroke-width="1"/><svg x="41" y="338" width="24" height="24" viewBox="0 0 24 24" fill="none" stroke="#376A50" stroke-width="1.7" stroke-linecap="round" stroke-linejoin="round"><path d="m8 3 8 0-1 6 4 5H5l4-5Z M12 14v7"/></svg><text x="86" y="343" font-family="Arial, Helvetica, sans-serif" font-size="16" font-weight="600" fill="#202D26" text-anchor="start" >Popular</text><text x="86" y="367" font-family="Arial, Helvetica, sans-serif" font-size="11" font-weight="400" fill="#606D63" text-anchor="start" >MangaDex · English</text><svg x="329" y="338" width="22" height="22" viewBox="0 0 24 24" fill="none" stroke="#606D63" stroke-width="1.7" stroke-linecap="round" stroke-linejoin="round"><path d="M7 7h.01 M17 7h.01 M7 12h.01 M17 12h.01 M7 17h.01 M17 17h.01"/></svg><rect x="24" y="417" width="345" height="88" rx="16" fill="#FFFFFF" stroke="#E7EAE4" stroke-width="1"/><svg x="41" y="445" width="24" height="24" viewBox="0 0 24 24" fill="none" stroke="#376A50" stroke-width="1.7" stroke-linecap="round" stroke-linejoin="round"><path d="m8 3 8 0-1 6 4 5H5l4-5Z M12 14v7"/></svg><text x="86" y="450" font-family="Arial, Helvetica, sans-serif" font-size="16" font-weight="600" fill="#202D26" text-anchor="start" >Latest</text><text x="86" y="474" font-family="Arial, Helvetica, sans-serif" font-size="11" font-weight="400" fill="#606D63" text-anchor="start" >MangaSee · English</text><svg x="329" y="445" width="22" height="22" viewBox="0 0 24 24" fill="none" stroke="#606D63" stroke-width="1.7" stroke-linecap="round" stroke-linejoin="round"><path d="M7 7h.01 M17 7h.01 M7 12h.01 M17 12h.01 M7 17h.01 M17 17h.01"/></svg><text x="24" y="564" font-family="Arial, Helvetica, sans-serif" font-size="13" font-weight="400" fill="#606D63" text-anchor="start" >Drag the handles to rearrange sections.</text><text x="24" y="587" font-family="Arial, Helvetica, sans-serif" font-size="13" font-weight="400" fill="#606D63" text-anchor="start" >Swipe a section to hide or remove it.</text><a href="#browse" data-target="browse" aria-label="browse"><rect x="24" y="654" width="345" height="48" rx="14" fill="#E9F0E9"/><text x="206.5" y="684" font-family="Arial, Helvetica, sans-serif" font-size="14" font-weight="600" fill="#376A50" text-anchor="middle" >Discover more sections</text><svg x="48" y="668" width="20" height="20" viewBox="0 0 24 24" fill="none" stroke="#376A50" stroke-width="1.7" stroke-linecap="round" stroke-linejoin="round"><path d="M12 5v14 M5 12h14"/></svg></a><rect x="130" y="839" width="133" height="5" rx="3" fill="#202D26"/></svg>