<svg xmlns="http://www.w3.org/2000/svg" xmlns:xlink="http://www.w3.org/1999/xlink" viewBox="0 0 393 852" width="393" height="852" role="img" aria-label="Manga details"><title>Manga details</title><rect x="0" y="0" width="393" height="852" rx="0" fill="#FAFAF7"/><text x="27" y="31" font-family="Arial, Helvetica, sans-serif" font-size="14" font-weight="600" fill="#202D26" text-anchor="start" >9:41</text><rect x="290" y="25.5" width="3" height="2.5" rx="1" fill="#202D26"/><rect x="295" y="23.0" width="3" height="5.0" rx="1" fill="#202D26"/><rect x="300" y="20.5" width="3" height="7.5" rx="1" fill="#202D26"/><rect x="305" y="18.0" width="3" height="10.0" rx="1" fill="#202D26"/><path d="M318 22q8-7 16 0m-13 3q5-4 10 0m-7 3q2-2 4 0" fill="none" stroke="#202D26" stroke-width="1.7" stroke-linecap="round"/><rect x="342" y="18" width="23" height="12" rx="3" fill="none" stroke="#202D26" stroke-width="1"/><rect x="345" y="21" width="16" height="6" rx="1" fill="#202D26"/><rect x="367" y="22" width="2" height="4" rx="1" fill="#202D26"/><a href="#library" data-target="library" aria-label="library"><svg x="20" y="61" width="24" height="24" viewBox="0 0 24 24" fill="none" stroke="#202D26" stroke-width="1.7" stroke-linecap="round" stroke-linejoin="round"><path d="m15 5-7 7 7 7"/></svg></a><text x="50" y="79" font-family="Arial, Helvetica, sans-serif" font-size="15" font-weight="500" fill="#202D26" text-anchor="start" >Library</text><a href="#edit" data-target="edit" aria-label="edit"><rect x="325" y="50" width="44" height="44" rx="22" fill="transparent"/><svg x="336" y="61" width="22" height="22" viewBox="0 0 24 24" fill="none" stroke="#202D26" stroke-width="1.7" stroke-linecap="round" stroke-linejoin="round"><path d="m4 16 12-12 4 4L8 20H4Z M14 6l4 4"/></svg></a><svg x="24" y="110" width="105" height="153" viewBox="0 0 120 174" preserveAspectRatio="xMidYMid slice"><rect x="0" y="0" width="120" height="174" rx="9" fill="#E2A56B"/><circle cx="96" cy="34" r="43" fill="#B6532C"/><circle cx="83" cy="34" r="36" fill="#E2A56B"/><path d="M-8 142 62 61l69 106M-10 126 41 76 123 163" fill="none" stroke="#B6532C" stroke-width="1" opacity=".32"/><path d="m57 55 6-14 6 8 8-16 5 16 13-7-3 15 12 3-12 11-3 26H61l-7-23-9-9Z" fill="#B6532C"/><path d="M21 152q7-54 47-60 35-2 47 56Z" fill="#B6532C"/><path d="M62 66h28v8H62Z" fill="#E2A56B"/><rect x="0" y="0" width="120" height="42" rx="0" fill="#E2A56B"/><text x="10" y="20" font-family="Arial, Helvetica, sans-serif" font-size="12" font-weight="700" fill="#263229" text-anchor="start" >NARUTO</text><text x="10" y="31" font-family="Arial, Helvetica, sans-serif" font-size="4.7" font-weight="500" fill="#384336" text-anchor="start" >MASASHI KISHIMOTO</text><rect x="0" y="157" width="120" height="17" rx="0" fill="#E2A56B"/><text x="10" y="168" font-family="Arial, Helvetica, sans-serif" font-size="5.5" font-weight="500" fill="#384336" text-anchor="start" >THE COLLECTION</text><text x="109" y="168" font-family="Arial, Helvetica, sans-serif" font-size="7" font-weight="600" fill="#384336" text-anchor="end" >01</text></svg><text x="150" y="132" font-family="Arial, Helvetica, sans-serif" font-size="9" font-weight="600" fill="#376A50" text-anchor="start" letter-spacing="1">YOUR COLLECTION</text><text x="150" y="167" font-family="Arial, Helvetica, sans-serif" font-size="29" font-weight="700" fill="#202D26" text-anchor="start" >Naruto</text><text x="150" y="192" font-family="Arial, Helvetica, sans-serif" font-size="12" font-weight="400" fill="#606D63" text-anchor="start" >Masashi Kishimoto</text><rect x="150" y="209" width="67.30000000000001" height="20" rx="6" fill="#E9F0E9"/><text x="158" y="223" font-family="Arial, Helvetica, sans-serif" font-size="10" font-weight="600" fill="#376A50" text-anchor="start" >Completed</text><text x="150" y="249" font-family="Arial, Helvetica, sans-serif" font-size="11" font-weight="400" fill="#606D63" text-anchor="start" >2 sources · 700 chapters</text><text x="24" y="294" font-family="Arial, Helvetica, sans-serif" font-size="13" font-weight="400" fill="#606D63" text-anchor="start" >A young ninja with a sealed spirit dreams of</text><text x="24" y="315" font-family="Arial, Helvetica, sans-serif" font-size="13" font-weight="400" fill="#606D63" text-anchor="start" >earning his village’s respect and becoming Hokage.</text><a href="#reader" data-target="reader" aria-label="reader"><rect x="24" y="338" width="345" height="48" rx="14" fill="#376A50"/><text x="206.5" y="368" font-family="Arial, Helvetica, sans-serif" font-size="14" font-weight="600" fill="#FFFFFF" text-anchor="middle" >Continue · Chapter 20</text><svg x="48" y="352" width="20" height="20" viewBox="0 0 24 24" fill="none" stroke="#FFFFFF" stroke-width="1.7" stroke-linecap="round" stroke-linejoin="round"><path d="m8 4 12 8-12 8Z"/></svg></a><a href="#categories" data-target="categories" aria-label="categories"><rect x="24" y="402" width="85" height="32" rx="16" fill="#376A50"/><text x="66.5" y="423" font-family="Arial, Helvetica, sans-serif" font-size="12" font-weight="600" fill="#FFFFFF" text-anchor="middle" >Reading</text></a><rect x="117" y="402" width="92" height="32" rx="16" fill="#F0F2ED"/><text x="163.0" y="423" font-family="Arial, Helvetica, sans-serif" font-size="12" font-weight="400" fill="#606D63" text-anchor="middle" >Adventure</text><a href="#edit" data-target="edit" aria-label="edit"><text x="369" y="423" font-family="Arial, Helvetica, sans-serif" font-size="12" font-weight="500" fill="#376A50" text-anchor="end" >Edit details</text></a><rect x="24" y="454" width="345" height="1" rx="0" fill="#E7EAE4"/><text x="24" y="490" font-family="Arial, Helvetica, sans-serif" font-size="19" font-weight="700" fill="#202D26" text-anchor="start" >Chapters</text><a href="#paste" data-target="paste" aria-label="paste"><text x="369" y="490" font-family="Arial, Helvetica, sans-serif" font-size="12" font-weight="500" fill="#376A50" text-anchor="end" >Paste 1</text></a><text x="24" y="514" font-family="Arial, Helvetica, sans-serif" font-size="11" font-weight="400" fill="#606D63" text-anchor="start" >Ascending · All sources</text><a href="#chapter-menu" data-target="chapter-menu" aria-label="chapter-menu"><svg x="345" y="499" width="20" height="20" viewBox="0 0 24 24" fill="none" stroke="#606D63" stroke-width="1.7" stroke-linecap="round" stroke-linejoin="round"><path d="M4 6h6 M15 6h5 M4 18h11 M19 18h1 M10 3v6 M15 15v6 M4 12h1 M9 12h11 M5 9v6"/></svg></a><a href="#reader" data-target="reader" aria-label="reader"><svg x="24" y="538" width="44" height="56" viewBox="0 0 120 174" preserveAspectRatio="xMidYMid slice"><rect x="0" y="0" width="120" height="174" rx="5" fill="#E2A56B"/><circle cx="96" cy="34" r="43" fill="#B6532C"/><circle cx="83" cy="34" r="36" fill="#E2A56B"/><path d="M-8 142 62 61l69 106M-10 126 41 76 123 163" fill="none" stroke="#B6532C" stroke-width="1" opacity=".32"/><path d="m57 55 6-14 6 8 8-16 5 16 13-7-3 15 12 3-12 11-3 26H61l-7-23-9-9Z" fill="#B6532C"/><path d="M21 152q7-54 47-60 35-2 47 56Z" fill="#B6532C"/><path d="M62 66h28v8H62Z" fill="#E2A56B"/><rect x="0" y="0" width="120" height="42" rx="0" fill="#E2A56B"/><text x="10" y="20" font-family="Arial, Helvetica, sans-serif" font-size="12" font-weight="700" fill="#263229" text-anchor="start" >NARUTO</text><text x="10" y="31" font-family="Arial, Helvetica, sans-serif" font-size="4.7" font-weight="500" fill="#384336" text-anchor="start" >MASASHI KISHIMOTO</text><rect x="0" y="157" width="120" height="17" rx="0" fill="#E2A56B"/><text x="10" y="168" font-family="Arial, Helvetica, sans-serif" font-size="5.5" font-weight="500" fill="#384336" text-anchor="start" >THE COLLECTION</text><text x="109" y="168" font-family="Arial, Helvetica, sans-serif" font-size="7" font-weight="600" fill="#384336" text-anchor="end" >01</text></svg><text x="82" y="554" font-family="Arial, Helvetica, sans-serif" font-size="14" font-weight="600" fill="#606D63" text-anchor="start" >Chapter 19</text><text x="82" y="572" font-family="Arial, Helvetica, sans-serif" font-size="12" font-weight="400" fill="#606D63" text-anchor="start" >The Symbol of Courage</text><text x="82" y="590" font-family="Arial, Helvetica, sans-serif" font-size="10" font-weight="400" fill="#606D63" text-anchor="start" >MangaDex</text><svg x="340" y="555" width="18" height="18" viewBox="0 0 24 24" fill="none" stroke="#376A50" stroke-width="1.7" stroke-linecap="round" stroke-linejoin="round"><path d="m5 12 4 4L19 6"/></svg><rect x="82" y="605" width="287" height="1" rx="0" fill="#E7EAE4"/></a><a href="#chapter-menu" data-target="chapter-menu" aria-label="chapter-menu"><svg x="24" y="615" width="44" height="56" viewBox="0 0 120 174" preserveAspectRatio="xMidYMid slice"><rect x="0" y="0" width="120" height="174" rx="5" fill="#E2A56B"/><circle cx="96" cy="34" r="43" fill="#B6532C"/><circle cx="83" cy="34" r="36" fill="#E2A56B"/><path d="M-8 142 62 61l69 106M-10 126 41 76 123 163" fill="none" stroke="#B6532C" stroke-width="1" opacity=".32"/><path d="m57 55 6-14 6 8 8-16 5 16 13-7-3 15 12 3-12 11-3 26H61l-7-23-9-9Z" fill="#B6532C"/><path d="M21 152q7-54 47-60 35-2 47 56Z" fill="#B6532C"/><path d="M62 66h28v8H62Z" fill="#E2A56B"/><rect x="0" y="0" width="120" height="42" rx="0" fill="#E2A56B"/><text x="10" y="20" font-family="Arial, Helvetica, sans-serif" font-size="12" font-weight="700" fill="#263229" text-anchor="start" >NARUTO</text><text x="10" y="31" font-family="Arial, Helvetica, sans-serif" font-size="4.7" font-weight="500" fill="#384336" text-anchor="start" >MASASHI KISHIMOTO</text><rect x="0" y="157" width="120" height="17" rx="0" fill="#E2A56B"/><text x="10" y="168" font-family="Arial, Helvetica, sans-serif" font-size="5.5" font-weight="500" fill="#384336" text-anchor="start" >THE COLLECTION</text><text x="109" y="168" font-family="Arial, Helvetica, sans-serif" font-size="7" font-weight="600" fill="#384336" text-anchor="end" >01</text></svg><text x="82" y="631" font-family="Arial, Helvetica, sans-serif" font-size="14" font-weight="600" fill="#202D26" text-anchor="start" >Chapter 20</text><text x="82" y="649" font-family="Arial, Helvetica, sans-serif" font-size="12" font-weight="400" fill="#606D63" text-anchor="start" >A New Chapter</text><text x="82" y="667" font-family="Arial, Helvetica, sans-serif" font-size="10" font-weight="400" fill="#606D63" text-anchor="start" >MangaDex</text><svg x="340" y="632" width="18" height="18" viewBox="0 0 24 24" fill="none" stroke="#606D63" stroke-width="1.7" stroke-linecap="round" stroke-linejoin="round"><path d="M12 3v12 m-5-5 5 5 5-5 M4 17v4h16v-4"/></svg><rect x="82" y="682" width="287" height="1" rx="0" fill="#E7EAE4"/></a><a href="#reader" data-target="reader" aria-label="reader"><svg x="24" y="692" width="44" height="56" viewBox="0 0 120 174" preserveAspectRatio="xMidYMid slice"><rect x="0" y="0" width="120" height="174" rx="5" fill="#E2A56B"/><circle cx="96" cy="34" r="43" fill="#B6532C"/><circle cx="83" cy="34" r="36" fill="#E2A56B"/><path d="M-8 142 62 61l69 106M-10 126 41 76 123 163" fill="none" stroke="#B6532C" stroke-width="1" opacity=".32"/><path d="m57 55 6-14 6 8 8-16 5 16 13-7-3 15 12 3-12 11-3 26H61l-7-23-9-9Z" fill="#B6532C"/><path d="M21 152q7-54 47-60 35-2 47 56Z" fill="#B6532C"/><path d="M62 66h28v8H62Z" fill="#E2A56B"/><rect x="0" y="0" width="120" height="42" rx="0" fill="#E2A56B"/><text x="10" y="20" font-family="Arial, Helvetica, sans-serif" font-size="12" font-weight="700" fill="#263229" text-anchor="start" >NARUTO</text><text x="10" y="31" font-family="Arial, Helvetica, sans-serif" font-size="4.7" font-weight="500" fill="#384336" text-anchor="start" >MASASHI KISHIMOTO</text><rect x="0" y="157" width="120" height="17" rx="0" fill="#E2A56B"/><text x="10" y="168" font-family="Arial, Helvetica, sans-serif" font-size="5.5" font-weight="500" fill="#384336" text-anchor="start" >THE COLLECTION</text><text x="109" y="168" font-family="Arial, Helvetica, sans-serif" font-size="7" font-weight="600" fill="#384336" text-anchor="end" >01</text></svg><text x="82" y="708" font-family="Arial, Helvetica, sans-serif" font-size="14" font-weight="600" fill="#202D26" text-anchor="start" >Chapter 21</text><text x="82" y="726" font-family="Arial, Helvetica, sans-serif" font-size="12" font-weight="400" fill="#606D63" text-anchor="start" >The Forest of Death</text><text x="82" y="744" font-family="Arial, Helvetica, sans-serif" font-size="10" font-weight="600" fill="#376A50" text-anchor="start" >MangaSee</text><svg x="340" y="709" width="18" height="18" viewBox="0 0 24 24" fill="none" stroke="#606D63" stroke-width="1.7" stroke-linecap="round" stroke-linejoin="round"><path d="M5 12h.01 M12 12h.01 M19 12h.01"/></svg><rect x="158" y="730" width="84.4" height="20" rx="6" fill="#E9F0E9"/><text x="166" y="744" font-family="Arial, Helvetica, sans-serif" font-size="10" font-weight="600" fill="#376A50" text-anchor="start" >Added source</text><rect x="82" y="759" width="287" height="1" rx="0" fill="#E7EAE4"/></a><rect x="0" y="763" width="393" height="89" rx="0" fill="#FFFFFF"/><rect x="0" y="763" width="393" height="1" rx="0" fill="#E7EAE4"/><a href="#home" data-target="home" aria-label="home"><svg x="32" y="778" width="23" height="23" viewBox="0 0 24 24" fill="none" stroke="#6C766E" stroke-width="1.7" stroke-linecap="round" stroke-linejoin="round"><path d="M3 10 12 3l9 7v10a1 1 0 0 1-1 1h-5v-7H9v7H4a1 1 0 0 1-1-1Z"/></svg><text x="43.5" y="818" font-family="Arial, Helvetica, sans-serif" font-size="10" font-weight="400" fill="#6C766E" text-anchor="middle" >Home</text><rect x="8" y="771" width="72" height="57" rx="0" fill="transparent"/></a><a href="#library" data-target="library" aria-label="library"><svg x="108" y="778" width="23" height="23" viewBox="0 0 24 24" fill="none" stroke="#376A50" stroke-width="1.7" stroke-linecap="round" stroke-linejoin="round"><path d="M4 4h4v16H4z M11 4h4v16h-4z M18 4l3 15"/></svg><text x="119.5" y="818" font-family="Arial, Helvetica, sans-serif" font-size="10" font-weight="600" fill="#376A50" text-anchor="middle" >Library</text><rect x="84" y="771" width="72" height="57" rx="0" fill="transparent"/></a><a href="#browse" data-target="browse" aria-label="browse"><svg x="184" y="778" width="23" height="23" viewBox="0 0 24 24" fill="none" stroke="#6C766E" stroke-width="1.7" stroke-linecap="round" stroke-linejoin="round"><path d="M12 3a9 9 0 1 0 0 18 9 9 0 0 0 0-18 M16 8l-3 5-5 3 3-5Z"/></svg><text x="195.5" y="818" font-family="Arial, Helvetica, sans-serif" font-size="10" font-weight="400" fill="#6C766E" text-anchor="middle" >Browse</text><rect x="160" y="771" width="72" height="57" rx="0" fill="transparent"/></a><a href="#history" data-target="history" aria-label="history"><svg x="260" y="778" width="23" height="23" viewBox="0 0 24 24" fill="none" stroke="#6C766E" stroke-width="1.7" stroke-linecap="round" stroke-linejoin="round"><path d="M3 10a9 9 0 1 1 1 7 M3 4v6h6 M12 7v5l3 2"/></svg><text x="271.5" y="818" font-family="Arial, Helvetica, sans-serif" font-size="10" font-weight="400" fill="#6C766E" text-anchor="middle" >History</text><rect x="236" y="771" width="72" height="57" rx="0" fill="transparent"/></a><a href="#settings" data-target="settings" aria-label="settings"><svg x="336" y="778" width="23" height="23" viewBox="0 0 24 24" fill="none" stroke="#6C766E" stroke-width="1.7" stroke-linecap="round" stroke-linejoin="round"><path d="M12 8a4 4 0 1 0 0 8 4 4 0 0 0 0-8 M9 3h6l1 3 3 1 2 5-2 5-3 1-1 3H9l-1-3-3-1-2-5 2-5 3-1Z"/></svg><text x="347.5" y="818" font-family="Arial, Helvetica, sans-serif" font-size="10" font-weight="400" fill="#6C766E" text-anchor="middle" >Settings</text><rect x="312" y="771" width="72" height="57" rx="0" fill="transparent"/></a><rect x="130" y="839" width="133" height="5" rx="3" fill="#202D26"/><a href="#reader" data-target="reader" aria-label="reader"><rect x="24" y="697" width="345" height="51" rx="14" fill="#202D26"/><svg x="40" y="712" width="20" height="20" viewBox="0 0 24 24" fill="none" stroke="#E2EDDF" stroke-width="1.7" stroke-linecap="round" stroke-linejoin="round"><path d="m5 12 4 4L19 6"/></svg><text x="72" y="728" font-family="Arial, Helvetica, sans-serif" font-size="12" font-weight="500" fill="#FFFFFF" text-anchor="start" >Chapter 21 added from MangaSee</text></a></svg>