<svg xmlns="http://www.w3.org/2000/svg" xmlns:xlink="http://www.w3.org/1999/xlink" viewBox="0 0 393 852" width="393" height="852" role="img" aria-label="Reader"><title>Reader</title><rect x="0" y="0" width="393" height="852" rx="0" fill="#151D18"/><text x="27" y="31" font-family="Arial, Helvetica, sans-serif" font-size="14" font-weight="600" fill="#F7F9F5" text-anchor="start" >9:41</text><rect x="290" y="25.5" width="3" height="2.5" rx="1" fill="#F7F9F5"/><rect x="295" y="23.0" width="3" height="5.0" rx="1" fill="#F7F9F5"/><rect x="300" y="20.5" width="3" height="7.5" rx="1" fill="#F7F9F5"/><rect x="305" y="18.0" width="3" height="10.0" rx="1" fill="#F7F9F5"/><path d="M318 22q8-7 16 0m-13 3q5-4 10 0m-7 3q2-2 4 0" fill="none" stroke="#F7F9F5" stroke-width="1.7" stroke-linecap="round"/><rect x="342" y="18" width="23" height="12" rx="3" fill="none" stroke="#F7F9F5" stroke-width="1"/><rect x="345" y="21" width="16" height="6" rx="1" fill="#F7F9F5"/><rect x="367" y="22" width="2" height="4" rx="1" fill="#F7F9F5"/><a href="#detail" data-target="detail" aria-label="detail"><svg x="22" y="62" width="22" height="22" viewBox="0 0 24 24" fill="none" stroke="#E8EDE8" stroke-width="1.7" stroke-linecap="round" stroke-linejoin="round"><path d="m15 5-7 7 7 7"/></svg></a><text x="196.5" y="76" font-family="Arial, Helvetica, sans-serif" font-size="15" font-weight="600" fill="#F6F8F4" text-anchor="middle" >Naruto</text><text x="196.5" y="98" font-family="Arial, Helvetica, sans-serif" font-size="10" font-weight="400" fill="#9CAA9D" text-anchor="middle" >Chapter 20 · MangaDex</text><a href="#reader-settings" data-target="reader-settings" aria-label="reader-settings"><svg x="344" y="63" width="23" height="23" viewBox="0 0 24 24" fill="none" stroke="#E8EDE8" stroke-width="1.7" stroke-linecap="round" stroke-linejoin="round"><path d="M5 12h.01 M12 12h.01 M19 12h.01"/></svg></a><rect x="13" y="123" width="367" height="556" rx="2" fill="#F6F4EE"/><rect x="24" y="137" width="345" height="206" rx="0" fill="#D9DCD2" stroke="#29332D" stroke-width="1.5"/><g stroke="#6F7A6F" stroke-width="1" fill="none"><path d="M30 137 90 343"/><path d="M48 137 90 343"/><path d="M66 137 90 343"/><path d="M84 137 90 343"/><path d="M102 137 90 343"/><path d="M120 137 90 343"/><path d="M138 137 90 343"/><path d="M156 137 90 343"/><path d="M174 137 90 343"/><path d="M192 137 90 343"/><path d="M210 137 90 343"/><path d="M228 137 90 343"/><path d="M246 137 90 343"/><path d="M264 137 90 343"/><path d="M282 137 90 343"/><path d="M300 137 90 343"/><path d="M318 137 90 343"/><path d="M336 137 90 343"/><path d="M354 137 90 343"/></g><path d="m24 289 63-88 54 60 66-104 68 118 45-65 49 70v63H24Z" fill="#879888"/><path d="m24 311 89-58 68 70 72-46 116 36v30H24Z" fill="#526A55"/><path d="m160 223 32-25 28 26-8 38 25 69h-96l31-74Z" fill="#273B2D"/><path d="m172 220 31 2" stroke="#E7E8DE" stroke-width="7"/><rect x="24" y="356" width="160" height="201" rx="0" fill="#ECEDE5" stroke="#29332D" stroke-width="1.5"/><rect x="196" y="356" width="173" height="201" rx="0" fill="#BAC9B6" stroke="#29332D" stroke-width="1.5"/><path d="M34 552q3-64 33-78l1-48 24-32 28 6 17 33-9 44q29 21 44 75Z" fill="#3A4B3E"/><path d="m62 429 79 0" stroke="#CBCDBF" stroke-width="9"/><path d="M197 510q87-37 171-80M198 526q92-39 170-81M198 543q108-51 170-83" stroke="#ECF0E5" stroke-width="8"/><ellipse cx="289" cy="399" rx="53" ry="28" fill="#F9F9F1" stroke="#29332D"/><text x="289" y="397" font-family="Arial, Helvetica, sans-serif" font-size="9" font-weight="700" fill="#29332D" text-anchor="middle" >WE KEEP</text><text x="289" y="409" font-family="Arial, Helvetica, sans-serif" font-size="9" font-weight="700" fill="#29332D" text-anchor="middle" >GOING.</text><rect x="24" y="570" width="345" height="96" rx="0" fill="#D6DBCF" stroke="#29332D" stroke-width="1.5"/><path d="M27 644q83-51 170 2 73 36 172-18" stroke="#536A58" stroke-width="23" fill="none"/><text x="47" y="598" font-family="Arial, Helvetica, sans-serif" font-size="10" font-weight="500" fill="#2D3B30" text-anchor="start" >A new chapter begins.</text><text x="24" y="721" font-family="Arial, Helvetica, sans-serif" font-size="12" font-weight="600" fill="#EFF4ED" text-anchor="start" >12</text><rect x="54" y="714" width="257" height="3" rx="2" fill="#3C483F"/><rect x="54" y="714" width="162" height="3" rx="2" fill="#BACDBA"/><circle cx="216" cy="715.5" r="5" fill="#E0EBDE"/><text x="369" y="721" font-family="Arial, Helvetica, sans-serif" font-size="12" font-weight="400" fill="#91A293" text-anchor="end" >19</text><a href="#reader" data-target="reader" aria-label="reader"><svg x="29" y="765" width="21" height="21" viewBox="0 0 24 24" fill="none" stroke="#E0EADD" stroke-width="1.7" stroke-linecap="round" stroke-linejoin="round"><path d="m15 5-7 7 7 7"/></svg></a><text x="196.5" y="781" font-family="Arial, Helvetica, sans-serif" font-size="11" font-weight="400" fill="#91A293" text-anchor="middle" >Tap to hide controls</text><a href="#next-chapter" data-target="next-chapter" aria-label="next-chapter"><svg x="343" y="765" width="21" height="21" viewBox="0 0 24 24" fill="none" stroke="#E0EADD" stroke-width="1.7" stroke-linecap="round" stroke-linejoin="round"><path d="m9 5 7 7-7 7"/></svg></a><rect x="130" y="839" width="133" height="5" rx="3" fill="#D6DFD7"/></svg>