<svg xmlns="http://www.w3.org/2000/svg" xmlns:xlink="http://www.w3.org/1999/xlink" width="192" height="160" viewBox="0 0 192 160"><ellipse cx="96" cy="78" rx="65" ry="57" fill="#E9F0E9"/><g transform="translate(39 45) scale(0.8)" fill="none" stroke="#376A50" stroke-width="2.8" stroke-linejoin="round" stroke-linecap="round"><path d="M50 70C38 52 20 56 8 59V16C26 13 41 23 50 36C59 23 74 13 92 16V59C80 56 62 52 50 70Z"/><path d="M50 36V70M13 65C26 62 40 63 50 76C60 63 74 62 87 65M19 25C29 26 37 31 42 36M58 36C63 31 71 26 81 25"/></g><circle cx="120" cy="91" r="20" fill="#FFFFFF" stroke="#376A50" stroke-width="3"/><path d="M135 107L149 121" stroke="#376A50" stroke-width="5" stroke-linecap="round"/></svg>